<svg width="12" height="12" viewBox="0 0 12 12" fill="none" xmlns="http://www.w3.org/2000/svg">
<path d="M10.5054 3.35711C10.62 3.47169 10.6773 3.61083 10.6773 3.77452C10.6773 3.93821 10.62 4.07735 10.5054 4.19193L6.0612 8.63613L5.22638 9.47095C5.1118 9.58553 4.97266 9.64282 4.80897 9.64282C4.64528 9.64282 4.50614 9.58553 4.39156 9.47095L3.55674 8.63613L1.33464 6.41403C1.22006 6.29944 1.16277 6.16031 1.16277 5.99662C1.16277 5.83293 1.22006 5.69379 1.33464 5.57921L2.16946 4.74438C2.28405 4.6298 2.42318 4.57251 2.58687 4.57251C2.75056 4.57251 2.8897 4.6298 3.00428 4.74438L4.80897 6.55521L8.83576 2.52229C8.95034 2.4077 9.08948 2.35041 9.25317 2.35041C9.41686 2.35041 9.55599 2.4077 9.67058 2.52229L10.5054 3.35711Z" fill="#5CA9FB"/>
</svg>
