<svg width="16" height="17" viewBox="0 0 16 17" fill="none" xmlns="http://www.w3.org/2000/svg">
<g clip-path="url(#clip0_1_29)">
<path d="M14.6369 13.6694V7.24087C14.4584 7.44176 14.2659 7.62592 14.0594 7.79333C12.5638 8.94288 11.3752 9.88596 10.4935 10.6226C10.2089 10.8625 9.97735 11.0495 9.79878 11.1834C9.6202 11.3173 9.37885 11.4526 9.07472 11.5894C8.77059 11.7261 8.4846 11.7944 8.21674 11.7944H8.20837H8.2C7.93215 11.7944 7.64615 11.7261 7.34202 11.5894C7.03789 11.4526 6.79654 11.3173 6.61797 11.1834C6.4394 11.0495 6.20782 10.8625 5.92322 10.6226C5.04152 9.88596 3.85291 8.94288 2.35737 7.79333C2.1509 7.62592 1.95837 7.44176 1.7798 7.24087V13.6694C1.7798 13.742 1.80631 13.8048 1.85932 13.8578C1.91234 13.9108 1.97512 13.9373 2.04766 13.9373H14.3691C14.4416 13.9373 14.5044 13.9108 14.5574 13.8578C14.6104 13.8048 14.6369 13.742 14.6369 13.6694ZM14.6369 4.87201C14.6369 4.86085 14.6369 4.83016 14.6369 4.77993C14.6369 4.72971 14.6369 4.69204 14.6369 4.66693C14.6369 4.64182 14.6355 4.60555 14.6328 4.55811C14.63 4.51068 14.6216 4.4758 14.6076 4.45348C14.5937 4.43116 14.5784 4.40605 14.5616 4.37815C14.5449 4.35025 14.5198 4.32932 14.4863 4.31537C14.4528 4.30142 14.4137 4.29444 14.3691 4.29444H2.04766C1.97512 4.29444 1.91234 4.32095 1.85932 4.37396C1.80631 4.42698 1.7798 4.48976 1.7798 4.5623C1.7798 5.4998 2.18996 6.29221 3.01027 6.93953C4.08728 7.78775 5.20614 8.67223 6.36686 9.59299C6.40034 9.62089 6.49799 9.7032 6.65982 9.83992C6.82166 9.97664 6.95 10.0813 7.04487 10.1538C7.13974 10.2264 7.2639 10.3143 7.41736 10.4175C7.57082 10.5207 7.71172 10.5975 7.84007 10.6477C7.96842 10.6979 8.0884 10.723 8.2 10.723H8.20837H8.21674C8.32835 10.723 8.44833 10.6979 8.57668 10.6477C8.70503 10.5975 8.84593 10.5207 8.99939 10.4175C9.15285 10.3143 9.27701 10.2264 9.37188 10.1538C9.46674 10.0813 9.59509 9.97664 9.75692 9.83992C9.91875 9.7032 10.0164 9.62089 10.0499 9.59299C11.2106 8.67223 12.3295 7.78775 13.4065 6.93953C13.7078 6.69958 13.9882 6.37731 14.2477 5.97274C14.5072 5.56816 14.6369 5.20125 14.6369 4.87201ZM15.7084 4.5623V13.6694C15.7084 14.0377 15.5772 14.353 15.315 14.6153C15.0527 14.8776 14.7374 15.0087 14.3691 15.0087H2.04766C1.67936 15.0087 1.36407 14.8776 1.10179 14.6153C0.839512 14.353 0.708374 14.0377 0.708374 13.6694V4.5623C0.708374 4.194 0.839512 3.87871 1.10179 3.61643C1.36407 3.35415 1.67936 3.22301 2.04766 3.22301H14.3691C14.7374 3.22301 15.0527 3.35415 15.315 3.61643C15.5772 3.87871 15.7084 4.194 15.7084 4.5623Z" fill="#AC6320"/>
</g>
<defs>
<clipPath id="clip0_1_29">
<rect width="15" height="15.2" fill="white" transform="matrix(1 0 0 -1 0.708374 16.1802)"/>
</clipPath>
</defs>
</svg>
