<svg width="12" height="12" viewBox="0 0 12 12" fill="none" xmlns="http://www.w3.org/2000/svg">
<path d="M10.7854 3.37982C10.9 3.4945 10.9573 3.63376 10.9573 3.7976C10.9573 3.96144 10.9 4.1007 10.7854 4.21538L6.3412 8.66355L5.50637 9.49911C5.39179 9.6138 5.25265 9.67114 5.08896 9.67114C4.92527 9.67114 4.78614 9.6138 4.67155 9.49911L3.83673 8.66355L1.61463 6.43947C1.50005 6.32478 1.44276 6.18552 1.44276 6.02168C1.44276 5.85785 1.50005 5.71858 1.61463 5.6039L2.44945 4.76833C2.56404 4.65365 2.70318 4.5963 2.86687 4.5963C3.03056 4.5963 3.16969 4.65365 3.28428 4.76833L5.08896 6.58077L9.11575 2.54425C9.23033 2.42956 9.36947 2.37222 9.53316 2.37222C9.69685 2.37222 9.83599 2.42956 9.95057 2.54425L10.7854 3.37982Z" fill="#090D73"/>
</svg>
