<svg width="12" height="12" viewBox="0 0 12 12" fill="none" xmlns="http://www.w3.org/2000/svg">
<path d="M10.7854 3.43413C10.9 3.54861 10.9573 3.68763 10.9573 3.85117C10.9573 4.01471 10.9 4.15373 10.7854 4.26821L6.3412 8.70844L5.50637 9.54251C5.39179 9.65699 5.25265 9.71423 5.08896 9.71423C4.92527 9.71423 4.78614 9.65699 4.67155 9.54251L3.83673 8.70844L1.61463 6.48832C1.50005 6.37384 1.44276 6.23483 1.44276 6.07128C1.44276 5.90774 1.50005 5.76873 1.61463 5.65425L2.44945 4.82017C2.56404 4.70569 2.70318 4.64845 2.86687 4.64845C3.03056 4.64845 3.16969 4.70569 3.28428 4.82017L5.08896 6.62938L9.11575 2.60006C9.23033 2.48557 9.36947 2.42833 9.53316 2.42833C9.69685 2.42833 9.83599 2.48557 9.95057 2.60006L10.7854 3.43413Z" fill="#090D73"/>
</svg>
