<svg width="12" height="12" viewBox="0 0 12 12" fill="none" xmlns="http://www.w3.org/2000/svg">
<path d="M10.7854 3.35711C10.9 3.47169 10.9573 3.61083 10.9573 3.77452C10.9573 3.93821 10.9 4.07735 10.7854 4.19193L6.3412 8.63613L5.50637 9.47095C5.39179 9.58553 5.25265 9.64282 5.08896 9.64282C4.92527 9.64282 4.78614 9.58553 4.67155 9.47095L3.83673 8.63613L1.61463 6.41403C1.50005 6.29944 1.44276 6.16031 1.44276 5.99662C1.44276 5.83293 1.50005 5.69379 1.61463 5.57921L2.44945 4.74438C2.56404 4.6298 2.70318 4.57251 2.86687 4.57251C3.03056 4.57251 3.16969 4.6298 3.28428 4.74438L5.08896 6.55521L9.11575 2.52229C9.23033 2.4077 9.36947 2.35041 9.53316 2.35041C9.69685 2.35041 9.83599 2.4077 9.95057 2.52229L10.7854 3.35711Z" fill="#090D73"/>
</svg>
