<svg width="10" height="17" viewBox="0 0 10 17" fill="none" xmlns="http://www.w3.org/2000/svg">
<g clip-path="url(#clip0_1_21)">
<path d="M6.51496 7.83178C6.51496 7.83178 6.61969 7.72705 6.82916 7.51758C7.03864 7.3081 7.14337 6.90731 7.14337 6.3152C7.14337 5.72309 6.9339 5.21757 6.51496 4.79862C6.09601 4.37968 5.59048 4.1702 4.99837 4.1702C4.40626 4.1702 3.90074 4.37968 3.48179 4.79862C3.06285 5.21757 2.85337 5.72309 2.85337 6.3152C2.85337 6.90731 3.06285 7.41284 3.48179 7.83178C3.90074 8.25073 4.40626 8.4602 4.99837 8.4602C5.59048 8.4602 6.09601 8.25073 6.51496 7.83178ZM9.28837 6.3152C9.28837 6.92407 9.19621 7.42401 9.01187 7.81503L5.96195 14.3003C5.87257 14.4846 5.73991 14.6299 5.56395 14.736C5.38799 14.8421 5.19947 14.8952 4.99837 14.8952C4.79728 14.8952 4.60875 14.8421 4.4328 14.736C4.25684 14.6299 4.12697 14.4846 4.04318 14.3003L0.984878 7.81503C0.800542 7.42401 0.708374 6.92407 0.708374 6.3152C0.708374 5.13098 1.12732 4.11993 1.96521 3.28204C2.8031 2.44415 3.81416 2.0252 4.99837 2.0252C6.18259 2.0252 7.19365 2.44415 8.03154 3.28204C8.86943 4.11993 9.28837 5.13098 9.28837 6.3152Z" fill="#AC6320"/>
</g>
<defs>
<clipPath id="clip0_1_21">
<rect width="8.58" height="15.2" fill="white" transform="matrix(1 0 0 -1 0.708374 16.0602)"/>
</clipPath>
</defs>
</svg>
