<svg width="13" height="16" viewBox="0 0 13 16" fill="none" xmlns="http://www.w3.org/2000/svg">
<g clip-path="url(#clip0_1_25)">
<path d="M12.4984 10.6107C12.4984 10.7614 12.4705 10.9582 12.4146 11.2011C12.3588 11.4439 12.3002 11.6351 12.2388 11.7746C12.1216 12.0538 11.781 12.3496 11.2172 12.6622C10.6925 12.9469 10.1733 13.0893 9.65973 13.0893C9.50901 13.0893 9.36247 13.0795 9.22012 13.06C9.07777 13.0404 8.91727 13.0056 8.73864 12.9553C8.56 12.9051 8.42742 12.8646 8.34089 12.8339C8.25437 12.8032 8.09945 12.746 7.87616 12.6622C7.65286 12.5785 7.51609 12.5283 7.46585 12.5115C6.91878 12.3161 6.43032 12.0845 6.00048 11.8165C5.28593 11.3755 4.54766 10.774 3.78566 10.012C3.02367 9.25001 2.42217 8.51174 1.98116 7.79719C1.7132 7.36735 1.48153 6.87889 1.28615 6.33182C1.2694 6.28157 1.21916 6.14481 1.13543 5.92151C1.05169 5.69821 0.994471 5.5433 0.963768 5.45678C0.933065 5.37025 0.892593 5.23767 0.842351 5.05903C0.79211 4.88039 0.75722 4.7199 0.737682 4.57755C0.718143 4.4352 0.708374 4.28866 0.708374 4.13794C0.708374 3.62436 0.850725 3.1052 1.13543 2.58045C1.44804 2.01663 1.74391 1.6761 2.02303 1.55887C2.16259 1.49747 2.35378 1.43885 2.59662 1.38303C2.83945 1.32721 3.03623 1.29929 3.18695 1.29929C3.26511 1.29929 3.32372 1.30767 3.3628 1.32441C3.46328 1.35791 3.61122 1.57004 3.8066 1.96081C3.868 2.06687 3.95174 2.2176 4.05781 2.41298C4.16387 2.60836 4.26156 2.7856 4.35088 2.9447C4.4402 3.1038 4.52673 3.25313 4.61046 3.39269C4.62721 3.41502 4.67606 3.4848 4.757 3.60203C4.83794 3.71926 4.89796 3.81835 4.93703 3.89929C4.97611 3.98024 4.99565 4.05978 4.99565 4.13794C4.99565 4.24959 4.9161 4.38914 4.757 4.55662C4.5979 4.72409 4.42485 4.8776 4.23784 5.01716C4.05083 5.15672 3.87777 5.30466 3.71868 5.46096C3.55958 5.61727 3.48003 5.74566 3.48003 5.84615C3.48003 5.89639 3.49398 5.95919 3.5219 6.03455C3.54981 6.10992 3.57353 6.16714 3.59307 6.20621C3.61261 6.24529 3.65169 6.31228 3.7103 6.40718C3.76892 6.50208 3.80102 6.55511 3.8066 6.56628C4.23086 7.33106 4.71653 7.98699 5.2636 8.53407C5.81068 9.08114 6.46661 9.56681 7.23139 9.99107C7.24256 9.99665 7.29559 10.0288 7.39049 10.0874C7.48539 10.146 7.55238 10.1851 7.59146 10.2046C7.63053 10.2241 7.68775 10.2479 7.76312 10.2758C7.83848 10.3037 7.90128 10.3176 7.95152 10.3176C8.052 10.3176 8.1804 10.2381 8.33671 10.079C8.49301 9.91989 8.64095 9.74684 8.78051 9.55983C8.92006 9.37282 9.07358 9.19977 9.24105 9.04067C9.40852 8.88157 9.54808 8.80202 9.65973 8.80202C9.73788 8.80202 9.81743 8.82156 9.89838 8.86064C9.97932 8.89971 10.0784 8.95972 10.1956 9.04067C10.3129 9.12161 10.3827 9.17046 10.405 9.18721C10.5445 9.27094 10.6939 9.35747 10.853 9.44679C11.0121 9.53611 11.1893 9.6338 11.3847 9.73986C11.5801 9.84593 11.7308 9.92966 11.8369 9.99107C12.2276 10.1865 12.4398 10.3344 12.4733 10.4349C12.49 10.4739 12.4984 10.5326 12.4984 10.6107Z" fill="#AC6320"/>
</g>
<defs>
<clipPath id="clip0_1_25">
<rect width="11.79" height="15.2" fill="white" transform="matrix(1 0 0 -1 0.708374 15.3302)"/>
</clipPath>
</defs>
</svg>
