<svg width="12" height="12" viewBox="0 0 12 12" fill="none" xmlns="http://www.w3.org/2000/svg">
<path d="M10.5054 3.87713C10.62 3.99171 10.6773 4.13085 10.6773 4.29454C10.6773 4.45823 10.62 4.59737 10.5054 4.71195L6.0612 9.15615L5.22638 9.99097C5.1118 10.1056 4.97266 10.1628 4.80897 10.1628C4.64528 10.1628 4.50614 10.1056 4.39156 9.99097L3.55674 9.15615L1.33464 6.93405C1.22006 6.81946 1.16277 6.68033 1.16277 6.51664C1.16277 6.35295 1.22006 6.21381 1.33464 6.09923L2.16946 5.2644C2.28405 5.14982 2.42318 5.09253 2.58687 5.09253C2.75056 5.09253 2.8897 5.14982 3.00428 5.2644L4.80897 7.07523L8.83576 3.04231C8.95034 2.92772 9.08948 2.87043 9.25317 2.87043C9.41686 2.87043 9.55599 2.92772 9.67058 3.04231L10.5054 3.87713Z" fill="#5CA9FB"/>
</svg>
