<svg width="21" height="20" viewBox="0 0 21 20" fill="none" xmlns="http://www.w3.org/2000/svg">
<g opacity="0.25">
<path d="M19.1647 9.27734C19.1647 7.71484 18.8131 6.26953 18.0319 4.98047C17.2506 3.65234 16.235 2.63672 14.9069 1.85547C13.6178 1.07422 12.1725 0.722656 10.61 0.722656C9.04749 0.722656 7.60217 1.07422 6.31311 1.85547C4.98499 2.63672 3.96936 3.65234 3.18811 4.98047C2.40686 6.26953 2.0553 7.71484 2.0553 9.27734C2.0553 10.8398 2.40686 12.2852 3.18811 13.5742C3.96936 14.9023 4.98499 15.918 6.31311 16.6992C7.60217 17.4805 9.04749 17.832 10.61 17.832C12.1725 17.832 13.6178 17.4805 14.9069 16.6992C16.235 15.918 17.2506 14.9023 18.0319 13.5742C18.8131 12.2852 19.1647 10.8398 19.1647 9.27734Z" fill="black"/>
</g>
</svg>
