<svg width="50" height="51" viewBox="0 0 50 51" fill="none" xmlns="http://www.w3.org/2000/svg">
<g clip-path="url(#clip0_12_308)">
<path d="M50 25.6164C50 11.8335 38.807 0.660156 25 0.660156C11.193 0.660156 0 11.8335 0 25.6164C0 38.0727 9.14219 48.3974 21.0938 50.2695V32.8304H14.7461V25.6164H21.0938V20.1183C21.0938 13.8636 24.8262 10.4087 30.5367 10.4087C33.2719 10.4087 36.1328 10.8961 36.1328 10.8961V17.0377H32.9805C29.8748 17.0377 28.9062 18.9615 28.9062 20.9352V25.6164H35.8398L34.7314 32.8304H28.9062V50.2695C40.8578 48.3974 50 38.0729 50 25.6164Z" fill="#1877F2"/>
<path d="M34.7314 32.8867L35.8398 25.6602H28.9062V20.9707C28.9062 18.9934 29.8748 17.0664 32.9805 17.0664H36.1328V10.9141C36.1328 10.9141 33.2719 10.4258 30.5365 10.4258C24.8262 10.4258 21.0938 13.8867 21.0938 20.1523V25.6602H14.7461V32.8867H21.0938V50.3564C22.386 50.5589 23.692 50.6605 25 50.6602C26.308 50.6605 27.614 50.5589 28.9062 50.3564V32.8867H34.7314Z" fill="white"/>
</g>
<defs>
<clipPath id="clip0_12_308">
<rect width="50" height="50" fill="white" transform="translate(0 0.660156)"/>
</clipPath>
</defs>
</svg>
