<svg width="50" height="51" viewBox="0 0 50 51" fill="none" xmlns="http://www.w3.org/2000/svg">
<g clip-path="url(#clip0_12_303)">
<path d="M38.2812 0.660156H11.7188C5.24666 0.660156 0 5.90682 0 12.3789V38.9414C0 45.4135 5.24666 50.6602 11.7188 50.6602H38.2812C44.7533 50.6602 50 45.4135 50 38.9414V12.3789C50 5.90682 44.7533 0.660156 38.2812 0.660156Z" fill="url(#paint0_radial_12_303)"/>
<path d="M38.2812 0.660156H11.7188C5.24666 0.660156 0 5.90682 0 12.3789V38.9414C0 45.4135 5.24666 50.6602 11.7188 50.6602H38.2812C44.7533 50.6602 50 45.4135 50 38.9414V12.3789C50 5.90682 44.7533 0.660156 38.2812 0.660156Z" fill="url(#paint1_radial_12_303)"/>
<path d="M25.0018 6.12891C19.6975 6.12891 19.0316 6.15215 16.9484 6.24688C14.8691 6.34219 13.4498 6.67129 12.208 7.1543C10.9232 7.65312 9.83359 8.32051 8.74805 9.40644C7.66152 10.4922 6.99414 11.5818 6.49375 12.866C6.00938 14.1082 5.67988 15.5281 5.58633 17.6064C5.49316 19.6898 5.46875 20.3559 5.46875 25.6604C5.46875 30.9648 5.49219 31.6285 5.58672 33.7117C5.68242 35.791 6.01152 37.2104 6.49414 38.4521C6.99336 39.7369 7.66074 40.8266 8.74668 41.9121C9.83203 42.9986 10.9217 43.6676 12.2055 44.1664C13.4482 44.6494 14.8678 44.9785 16.9467 45.0738C19.0301 45.1686 19.6953 45.1918 24.9994 45.1918C30.3043 45.1918 30.968 45.1686 33.0512 45.0738C35.1305 44.9785 36.5514 44.6494 37.7941 44.1664C39.0783 43.6676 40.1664 42.9986 41.2516 41.9121C42.3381 40.8266 43.0053 39.7369 43.5059 38.4527C43.9859 37.2104 44.3156 35.7906 44.4133 33.7121C44.5068 31.6289 44.5312 30.9648 44.5312 25.6604C44.5312 20.3559 44.5068 19.6902 44.4133 17.6068C44.3156 15.5275 43.9859 14.1084 43.5059 12.8666C43.0053 11.5818 42.3381 10.4922 41.2516 9.40644C40.1652 8.32012 39.0787 7.65273 37.793 7.15449C36.5479 6.67129 35.1277 6.34199 33.0484 6.24688C30.965 6.15215 30.3018 6.12891 24.9957 6.12891H25.0018ZM23.2496 9.64863C23.7697 9.64785 24.35 9.64863 25.0018 9.64863C30.2168 9.64863 30.8348 9.66738 32.8941 9.76094C34.7984 9.84805 35.832 10.1662 36.5205 10.4336C37.432 10.7875 38.0818 11.2107 38.765 11.8945C39.4486 12.5781 39.8717 13.2291 40.2266 14.1406C40.4939 14.8281 40.8125 15.8617 40.8992 17.766C40.9928 19.825 41.0131 20.4434 41.0131 25.6559C41.0131 30.8684 40.9928 31.4869 40.8992 33.5457C40.8121 35.45 40.4939 36.4836 40.2266 37.1713C39.8727 38.0828 39.4486 38.7318 38.765 39.415C38.0814 40.0986 37.4324 40.5217 36.5205 40.8758C35.8328 41.1443 34.7984 41.4617 32.8941 41.5488C30.8352 41.6424 30.2168 41.6627 25.0018 41.6627C19.7865 41.6627 19.1684 41.6424 17.1096 41.5488C15.2053 41.4609 14.1717 41.1428 13.4826 40.8754C12.5713 40.5213 11.9201 40.0982 11.2365 39.4146C10.5529 38.7311 10.1299 38.0816 9.775 37.1697C9.50762 36.482 9.18906 35.4484 9.10234 33.5441C9.00879 31.4852 8.99004 30.8668 8.99004 25.651C8.99004 20.4354 9.00879 19.8201 9.10234 17.7611C9.18945 15.8568 9.50762 14.8232 9.775 14.1348C10.1291 13.2232 10.5529 12.5723 11.2367 11.8887C11.9203 11.2051 12.5713 10.7818 13.4828 10.4271C14.1713 10.1586 15.2053 9.84121 17.1096 9.75371C18.9113 9.67227 19.6096 9.64785 23.2496 9.64375V9.64863ZM35.4275 12.8916C34.1336 12.8916 33.0838 13.9404 33.0838 15.2346C33.0838 16.5285 34.1336 17.5783 35.4275 17.5783C36.7215 17.5783 37.7713 16.5285 37.7713 15.2346C37.7713 13.9406 36.7215 12.8908 35.4275 12.8908V12.8916ZM25.0018 15.6301C19.4627 15.6301 14.9717 20.1211 14.9717 25.6604C14.9717 31.1996 19.4627 35.6885 25.0018 35.6885C30.541 35.6885 35.0305 31.1996 35.0305 25.6604C35.0305 20.1213 30.5406 15.6301 25.0014 15.6301H25.0018ZM25.0018 19.1498C28.5973 19.1498 31.5123 22.0645 31.5123 25.6604C31.5123 29.2559 28.5973 32.1709 25.0018 32.1709C21.4061 32.1709 18.4914 29.2559 18.4914 25.6604C18.4914 22.0645 21.4061 19.1498 25.0018 19.1498Z" fill="white"/>
</g>
<defs>
<radialGradient id="paint0_radial_12_303" cx="0" cy="0" r="1" gradientUnits="userSpaceOnUse" gradientTransform="translate(13.2812 54.5111) rotate(-90) scale(49.5537 46.0889)">
<stop stop-color="#FFDD55"/>
<stop offset="0.1" stop-color="#FFDD55"/>
<stop offset="0.5" stop-color="#FF543E"/>
<stop offset="1" stop-color="#C837AB"/>
</radialGradient>
<radialGradient id="paint1_radial_12_303" cx="0" cy="0" r="1" gradientUnits="userSpaceOnUse" gradientTransform="translate(-8.3752 4.26191) rotate(78.681) scale(22.1508 91.3062)">
<stop stop-color="#3771C8"/>
<stop offset="0.128" stop-color="#3771C8"/>
<stop offset="1" stop-color="#6600FF" stop-opacity="0"/>
</radialGradient>
<clipPath id="clip0_12_303">
<rect width="50" height="50" fill="white" transform="translate(0 0.660156)"/>
</clipPath>
</defs>
</svg>
