<svg width="50" height="51" viewBox="0 0 50 51" fill="none" xmlns="http://www.w3.org/2000/svg">
<g clip-path="url(#clip0_12_293)">
<path d="M38.2812 0.660156H11.7188C5.24666 0.660156 0 5.90682 0 12.3789V38.9414C0 45.4135 5.24666 50.6602 11.7188 50.6602H38.2812C44.7533 50.6602 50 45.4135 50 38.9414V12.3789C50 5.90682 44.7533 0.660156 38.2812 0.660156Z" fill="white"/>
<path d="M38.2812 0.660156H11.7188C5.24666 0.660156 0 5.90682 0 12.3789V38.9414C0 45.4135 5.24666 50.6602 11.7188 50.6602H38.2812C44.7533 50.6602 50 45.4135 50 38.9414V12.3789C50 5.90682 44.7533 0.660156 38.2812 0.660156Z" fill="#0A66C2"/>
<path d="M36.0771 43.1768H41.7939C42.0011 43.1768 42.1998 43.0945 42.3463 42.948C42.4928 42.8015 42.5751 42.6029 42.5752 42.3957L42.5781 30.3172C42.5781 24.0041 41.2178 19.1516 33.8402 19.1516C31.0357 19.0473 28.391 20.493 26.9639 22.907C26.9569 22.9188 26.9463 22.9279 26.9336 22.933C26.921 22.9381 26.907 22.939 26.8938 22.9354C26.8807 22.9318 26.869 22.9241 26.8607 22.9133C26.8523 22.9025 26.8478 22.8892 26.8477 22.8756V20.5156C26.8477 20.3084 26.7653 20.1097 26.6188 19.9632C26.4723 19.8167 26.2736 19.7344 26.0664 19.7344H20.6412C20.434 19.7344 20.2353 19.8167 20.0888 19.9632C19.9423 20.1097 19.86 20.3084 19.86 20.5156V42.3945C19.86 42.6017 19.9423 42.8004 20.0888 42.947C20.2353 43.0935 20.434 43.1758 20.6412 43.1758H26.3576C26.5648 43.1758 26.7635 43.0935 26.91 42.947C27.0566 42.8004 27.1389 42.6017 27.1389 42.3945V31.5795C27.1389 28.5215 27.7189 25.56 31.5102 25.56C35.2475 25.56 35.2959 29.0592 35.2959 31.7775V42.3955C35.2959 42.6027 35.3782 42.8014 35.5247 42.9479C35.6712 43.0944 35.8699 43.1768 36.0771 43.1768ZM7.42188 12.3062C7.42188 14.6234 9.32949 16.5301 11.6469 16.5301C13.9637 16.5299 15.8701 14.6221 15.8701 12.3053C15.8697 9.98848 13.9631 8.08203 11.6461 8.08203C9.32852 8.08203 7.42188 9.98906 7.42188 12.3062ZM8.78105 43.1768H14.5051C14.7123 43.1768 14.911 43.0944 15.0575 42.9479C15.204 42.8014 15.2863 42.6027 15.2863 42.3955V20.5156C15.2863 20.3084 15.204 20.1097 15.0575 19.9632C14.911 19.8167 14.7123 19.7344 14.5051 19.7344H8.78105C8.57385 19.7344 8.37514 19.8167 8.22863 19.9632C8.08211 20.1097 7.9998 20.3084 7.9998 20.5156V42.3955C7.9998 42.6027 8.08211 42.8014 8.22863 42.9479C8.37514 43.0944 8.57385 43.1768 8.78105 43.1768Z" fill="white"/>
</g>
<defs>
<clipPath id="clip0_12_293">
<rect width="50" height="50" fill="white" transform="translate(0 0.660156)"/>
</clipPath>
</defs>
</svg>
